<svg xmlns="http://www.w3.org/2000/svg" width="209" height="52" viewBox="0 0 209 52"><rect width="209" height="52" fill="none"/><g transform="translate(189.771 1)"><path d="M194.83,33.972l6.49,3.207v.729l-4.69-2.2.1,1.888-1.43.869,5.93,3-.05.729-4.32-2.108.05,2.658a.25.25,0,0,1-.1.23L194.98,44.4a.223.223,0,0,1-.37-.14L189.78,2.7a.27.27,0,0,1,.14-.23L194.56,0a.24.24,0,0,1,.33.07.289.289,0,0,1,0,.16l.41,8.123-2.71,1.239,9.6,3.937-.09,1.289-6.62-2.568.09,3.437-2.3,1.3,8.65,3.537v1.049l-6.12-2.338.14,3-2.16,1.149,7.86,3.437v1l-5.6-2.248.09,2.388-1.75,1.019,7.12,3.167v.919l-5.14-2.248.09,2.2ZM209,5.076l-4.84,41.086v.14l-2.39,2a.14.14,0,0,1-.2,0,.11.11,0,0,1,0-.08l1.99-40.026c0-.09.1-.14.14-.23l5-3.067a.19.19,0,0,1,.27,0,.21.21,0,0,1,.03.18Zm-.78,38.158a1.11,1.11,0,1,1-1.11-1.1h0a1.06,1.06,0,0,1,1.11,1Zm-.14,0a1,1,0,1,0-1,1h0a.94.94,0,0,0,1-.919Zm-.73.14.23.46h-.23l-.18-.46h-.28v.46h-.18V42.644h.46c.33,0,.41.18.41.37a.41.41,0,0,1-.23.36Zm0-.37c0-.09,0-.18-.23-.18h-.28v.37h.28C207.31,43.194,207.35,43.094,207.35,43Z" transform="translate(-189.78 0.038)" fill="#0051a5"/></g><g transform="translate(0 12.825)"><path d="M0,19c0-4.64,2.3-7.2,6.63-7.2h5.12v2.94H7.08c-2.53,0-3.64,1.48-3.64,4.27s1.26,4.35,3.92,4.35h4.39V26.3H6.66C2.44,26.33,0,23.74,0,19Z" transform="translate(0 -11.8)"/><path d="M13.4,14.6h3.25V26.32H13.4Z" transform="translate(0 -11.8)"/><path d="M34.49,14.6l-2.62,4-2.61-4H17.84v2.67h3.43v9.06h3.25V17.27h3.06l2.67,4.08v5H33.5v-5l4.42-6.75Z" transform="translate(0 -11.8)"/><g transform="translate(41.066 0.02)"><path d="M41.07,11.82h4.07l5.94,9.69V11.82h3.34V26.33H50.35l-5.94-9.48v9.48H41.07Z" transform="translate(-41.07 -11.82)"/><path d="M63.91,24.33H59.45l-.74,2H55.42L60.07,14.6h3.24l4.63,11.72H64.65Zm-2.23-6L60.34,21.8H63Z" transform="translate(-41.07 -11.82)"/><path d="M69.77,17.27H66.34V14.61H76.45v2.66H73v9.06H69.77Z" transform="translate(-41.07 -11.82)"/><path d="M77.85,14.6h3.26V26.32H77.85Z" transform="translate(-41.07 -11.82)"/><path d="M82.94,20.46c0-4,2.16-6.05,6.26-6.05s6.26,2,6.26,6.05-2.15,6.06-6.26,6.06S82.94,24.49,82.94,20.46Zm9.16,0c0-2.61-1.06-3.6-2.9-3.6s-2.9,1-2.9,3.6,1.07,3.6,2.9,3.6,2.9-.99,2.9-3.6Z" transform="translate(-41.07 -11.82)"/><path d="M100.44,19.25v7.08H97.3V14.6h3.53l4.24,7v-7h3.15V26.32h-3.46Z" transform="translate(-41.07 -11.82)"/><path d="M117.68,24.33h-4.45l-.75,2h-3.29l4.65-11.72h3.24l4.63,11.72h-3.29Zm-2.23-6-1.34,3.47h2.69Z" transform="translate(-41.07 -11.82)"/><path d="M122.67,14.6h3.25v9.06h5.57v2.66h-8.82Z" transform="translate(-41.07 -11.82)"/></g><g transform="translate(135.072 0.02)"><path d="M135.08,11.82h8.31c2.7,0,4,1.45,4,3.68a3.06,3.06,0,0,1-1.79,3,3.46,3.46,0,0,1,2.14,3.59c0,2.73-1.57,4.22-4.47,4.22h-8.15Zm3.25,5.93h4a1.55,1.55,0,0,0,1.77-1.3,1.878,1.878,0,0,0,0-.41c0-1-.5-1.66-1.78-1.66h-4Zm0,5.86h4.26c1.26,0,1.7-.66,1.7-1.73s-.62-1.68-1.86-1.68h-4.1v3.41Z" transform="translate(-135.08 -11.82)"/><path d="M156.56,24.33H152.1l-.74,2h-3.29l4.65-11.72H156l4.63,11.72H157.3Zm-2.24-6L153,21.82h2.69Z" transform="translate(-135.08 -11.82)"/><path d="M164.74,19.25v7.08h-3.15V14.6h3.54l4.24,7v-7h3.14V26.32h-3.46Z" transform="translate(-135.08 -11.82)"/><path d="M178,21.4v4.92h-3.25V14.6H178v4.45l4.16-4.45H186l-5.29,5.67,5.52,6.05h-3.84Z" transform="translate(-135.08 -11.82)"/></g></g><g transform="translate(21 38.347)"><g transform="translate(0 0.151)"><path d="M26.65,46.06,26,43.81H23.18l-.7,2.25H21l2.81-8.56h1.65l2.73,8.56Zm-1-3.43s-.05-.14-.11-.32-.12-.4-.19-.65-.14-.54-.23-.83-.16-.57-.23-.84l-.18-.69c-.05-.2-.08-.32-.09-.38h0a2.776,2.776,0,0,1-.13.45c-.05.19-.12.42-.19.67l-.22.77-.23.76c-.07.24-.14.45-.19.64a3.117,3.117,0,0,1-.13.4h2.13Z" transform="translate(-21 -37.5)" fill="#0051a5"/><path d="M34.06,46.06l-1.92-4c-.11-.24-.23-.48-.34-.73l-.32-.7c-.1-.23-.18-.44-.26-.62l-.17-.48h0a6.457,6.457,0,0,0,.07,1.14,7.1,7.1,0,0,1,0,1.22v4.14h-1.4V37.51h1.61l2.08,4.18c.1.2.2.41.29.62l.26.62c.08.2.15.38.2.55s.09.27.13.4h0V37.54h1.35v8.55Z" transform="translate(-21 -37.5)" fill="#0051a5"/></g><g transform="translate(20.37 0.04)"><path d="M45.52,46.06l-.75-1.32A13.7,13.7,0,0,0,44,43.47a6.661,6.661,0,0,0-.68-.83,1,1,0,0,0-.23-.19.71.71,0,0,0-.32-.07v3.69h-1.4V37.52H44a3.52,3.52,0,0,1,1.25.2,2.37,2.37,0,0,1,.87.53,2.13,2.13,0,0,1,.5.78,2.74,2.74,0,0,1,.17.94,2.67,2.67,0,0,1-.15.88,2.23,2.23,0,0,1-.42.75,2.16,2.16,0,0,1-.67.52,2,2,0,0,1-.89.19,1.61,1.61,0,0,1,.28.24c.12.13.23.26.34.4s.24.33.36.52.24.36.35.54l1.27,2.05ZM45.27,40a1.24,1.24,0,0,0-.39-1,2.14,2.14,0,0,0-1.35-.32h-.78v2.7h.73a3.7,3.7,0,0,0,.88-.08,1,1,0,0,0,.52-.28,1.07,1.07,0,0,0,.28-.44A1.73,1.73,0,0,0,45.27,40Z" transform="translate(-41.37 -37.389)" fill="#0051a5"/><path d="M54.86,43.65A2.06,2.06,0,0,1,54,45.49a4.38,4.38,0,0,1-2.48.58H49V37.52h3.08a4,4,0,0,1,.59.07,2.23,2.23,0,0,1,.44.13,1.87,1.87,0,0,1,.4.2,1.9,1.9,0,0,1,1,1.68,1.87,1.87,0,0,1-.38,1.18,2.07,2.07,0,0,1-1.09.69,2.84,2.84,0,0,1,.88.37,1.71,1.71,0,0,1,.55.52,1.85,1.85,0,0,1,.29.62A2.05,2.05,0,0,1,54.86,43.65ZM53,39.84a1.13,1.13,0,0,0-.19-.66,1,1,0,0,0-.5-.4A1.16,1.16,0,0,0,52,38.7H50.43V41h1.19a2.56,2.56,0,0,0,.62-.06.86.86,0,0,0,.43-.26,1,1,0,0,0,.27-.45,1.14,1.14,0,0,0,.06-.39Zm.28,3.67a1.36,1.36,0,0,0-.23-.8,1,1,0,0,0-.57-.45,1.8,1.8,0,0,0-.32-.06H50.45v2.71h1.28a1.53,1.53,0,0,0,1.19-.41,1.34,1.34,0,0,0,.37-.99Z" transform="translate(-41.37 -37.389)" fill="#0051a5"/><path d="M62.71,45.45a3.75,3.75,0,0,1-2.35.75,3.49,3.49,0,0,1-1.52-.32A3.32,3.32,0,0,1,57.66,45a4.66,4.66,0,0,1-1-3.05,5.32,5.32,0,0,1,.57-2.6,3.56,3.56,0,0,1,1.31-1.44,3.33,3.33,0,0,1,1.84-.52,3.63,3.63,0,0,1,1.18.17,2.51,2.51,0,0,1,.94.5l-.66.94a2.33,2.33,0,0,0-.7-.36,2.46,2.46,0,0,0-.76-.12,1.85,1.85,0,0,0-1,.27,2.21,2.21,0,0,0-.71.75,3.19,3.19,0,0,0-.33.94,6.38,6.38,0,0,0-.11,1.31A7.86,7.86,0,0,0,58.35,43a2.8,2.8,0,0,0,.25.84,2,2,0,0,0,.78.92,2.12,2.12,0,0,0,1.13.29,2.31,2.31,0,0,0,.82-.13,2.53,2.53,0,0,0,.71-.41Z" transform="translate(-41.37 -37.389)" fill="#0051a5"/></g><g transform="translate(46.247)"><path d="M73.29,45.45A3.7,3.7,0,0,1,71,46.2a3.49,3.49,0,0,1-1.52-.32A3.32,3.32,0,0,1,68.25,45a4.67,4.67,0,0,1-1-3.05,5.43,5.43,0,0,1,.57-2.6,3.66,3.66,0,0,1,1.32-1.44A3.33,3.33,0,0,1,71,37.35a3.63,3.63,0,0,1,1.18.17,2.67,2.67,0,0,1,.94.5l-.66.94a2.27,2.27,0,0,0-.71-.36,2.36,2.36,0,0,0-.75-.12,1.82,1.82,0,0,0-1,.27,2.21,2.21,0,0,0-.71.75,3.21,3.21,0,0,0-.34.94,7.16,7.16,0,0,0-.1,1.31A7.86,7.86,0,0,0,68.94,43a2.8,2.8,0,0,0,.25.84,2,2,0,0,0,.78.92,2.12,2.12,0,0,0,1.13.29,2.25,2.25,0,0,0,.81-.13,2.58,2.58,0,0,0,.72-.41Z" transform="translate(-67.247 -37.349)" fill="#0051a5"/><path d="M81.56,41.81a6.28,6.28,0,0,1-.24,1.82A4.09,4.09,0,0,1,80.64,45a3.17,3.17,0,0,1-1.11.88,3.57,3.57,0,0,1-1.48.31,3.67,3.67,0,0,1-1.6-.33A3.41,3.41,0,0,1,75.31,45a3.8,3.8,0,0,1-.68-1.4,6.48,6.48,0,0,1-.22-1.76,6.26,6.26,0,0,1,.26-1.87,4.08,4.08,0,0,1,.73-1.38,3,3,0,0,1,1.12-.85A3.53,3.53,0,0,1,78,37.4a3.44,3.44,0,0,1,1.58.34,3,3,0,0,1,1.12.93,4,4,0,0,1,.67,1.4A6.8,6.8,0,0,1,81.56,41.81Zm-1.62.08a8.171,8.171,0,0,0-.09-1.4,3.64,3.64,0,0,0-.32-1.08,1.6,1.6,0,0,0-.61-.68,1.75,1.75,0,0,0-1-.24,1.59,1.59,0,0,0-1.52.84,5,5,0,0,0-.4,2.38,7.91,7.91,0,0,0,.11,1.46,3.18,3.18,0,0,0,.35,1.08,1.71,1.71,0,0,0,.62.66,1.75,1.75,0,0,0,.93.22,1.71,1.71,0,0,0,.83-.18,1.59,1.59,0,0,0,.6-.58,3,3,0,0,0,.37-1,6.68,6.68,0,0,0,.13-1.48Z" transform="translate(-67.247 -37.349)" fill="#0051a5"/><path d="M90.65,46.06l-.39-5.3V39.28a5.16,5.16,0,0,1-.13.59c-.05.26-.12.51-.2.78L88.3,46.06H87.08l-1.42-5.17q-.06-.21-.12-.45a2.355,2.355,0,0,0-.1-.46c-.03-.15-.07-.28-.1-.4a2.268,2.268,0,0,1-.06-.25c0,.07,0,.15,0,.26v1.32l-.37,5.17h-1.4l.79-8.55h1.89l1.31,4.84a9,9,0,0,1,.21.9c.05.24.08.42.11.54a3.816,3.816,0,0,1,.1-.57c.05-.25.13-.55.21-.84l1.35-4.87h1.9l.75,8.55h-1.4Z" transform="translate(-67.247 -37.349)" fill="#0051a5"/><path d="M100,40.07a2.76,2.76,0,0,1-.22,1.14,2.42,2.42,0,0,1-.58.86,2.36,2.36,0,0,1-.88.54,2.94,2.94,0,0,1-1.1.2H95.78v3.26H94.37V37.52h3.08a5.73,5.73,0,0,1,.58.07,2.35,2.35,0,0,1,.43.13,2,2,0,0,1,.36.18,2.42,2.42,0,0,1,.88.89A2.63,2.63,0,0,1,100,40.07Zm-1.58.09a1.48,1.48,0,0,0-.34-1.07,1.34,1.34,0,0,0-.49-.32,1.86,1.86,0,0,0-.71-.11H95.77v3h1.11a1.56,1.56,0,0,0,1.17-.37,1.51,1.51,0,0,0,.37-1.13Z" transform="translate(-67.247 -37.349)" fill="#0051a5"/><path d="M105.94,46.06l-.69-2.25h-2.78l-.69,2.25H100.3l2.82-8.56h1.64l2.73,8.56Zm-1-3.43a.677.677,0,0,0-.11-.32l-.18-.65c-.08-.26-.15-.54-.24-.83s-.15-.57-.23-.84L104,39.3a2.3,2.3,0,0,1-.08-.38h0a2.777,2.777,0,0,1-.13.45c-.05.19-.11.42-.19.67l-.22.77-.22.76c-.08.24-.14.45-.2.64l-.12.4h2.12Z" transform="translate(-67.247 -37.349)" fill="#0051a5"/><path d="M113.35,46.06l-1.92-4c-.11-.24-.23-.48-.34-.73s-.21-.48-.31-.7-.19-.44-.26-.62-.13-.36-.18-.48h0q0,.54.06,1.14v5.36H109V37.51h1.61l2.08,4.18c.11.2.2.41.29.62s.18.43.26.62.15.38.21.55a3,3,0,0,1,.12.4h0V37.54h1.35v8.55Z" transform="translate(-67.247 -37.349)" fill="#0051a5"/><path d="M120.35,42.62v3.45h-1.48V42.61l-2.69-5.08h1.72l1.28,2.68c.12.24.22.47.31.69l.15.41a4.228,4.228,0,0,1,.18-.43l.29-.65,1.31-2.7h1.65Z" transform="translate(-67.247 -37.349)" fill="#0051a5"/></g></g><g transform="translate(0.625 33.607)"><path d="M14.65,48.75a1.1,1.1,0,0,1-.74,1.15,18.38,18.38,0,0,1-12.54,0,1.1,1.1,0,0,1-.74-1.15V32.61h14Z" transform="translate(-0.625 -32.61)" fill="#0051a5"/><g transform="translate(0.805 0.75)"><path d="M4.39,42.44C2.46,41.23,1.81,40.7,1.76,39.9a2,2,0,0,1,.09-.63l-.18-.12a1.7,1.7,0,0,0-.24.82,1.92,1.92,0,0,0,.33,1.09A4.41,4.41,0,0,0,3,42.27,4.79,4.79,0,0,1,4.6,44.2h.11v-.79A5.08,5.08,0,0,1,7.1,45.52h.11c-.18-1-.76-1.8-2.82-3.08" transform="translate(-1.43 -33.36)" fill="#fedf01"/><path d="M10.09,39.79a2.31,2.31,0,0,0-1,.82h.87a7,7,0,0,1,.11-.78m3.13,3.1a2.19,2.19,0,0,0,.16-.67l-1.27-.07a4.09,4.09,0,0,1-.25.91Zm-1.37-3.15c.08.23.15.47.21.71h.74a2.53,2.53,0,0,0-1-.67m-.34.75a4.08,4.08,0,0,0-.37-.89h-.32a8.371,8.371,0,0,0-.3.93Zm.62.39a5.29,5.29,0,0,1,0,.89l1.22-.06a2.28,2.28,0,0,0-.23-.78Zm-.41.91a7.55,7.55,0,0,0-.12-.94l-1.23-.05a7.67,7.67,0,0,0-.16,1.07Zm.18-2.62.15-.21-.23-.29v-.07l.63.34-.14.41a2.14,2.14,0,0,1,.32.2l.4-.67-1-.54H9.7L7.81,39.47a4.52,4.52,0,0,1,.91.78A2.86,2.86,0,0,1,11,39a2.54,2.54,0,0,1,.91.13M7.26,39.1l1-.62a1.57,1.57,0,0,0-.7-.17,8.72,8.72,0,0,0-1.26.21l.92.58m.21-2.35a.76.76,0,0,0-.79.16.68.68,0,0,0,.37.07.55.55,0,0,0,.42-.23m5.86,8.77H13.2c0-.72-.66-.91-1.35-.91H9.67a3.53,3.53,0,0,1,.05,1.17H9.61c-.2-1.63-1.12-2.44-2.4-3.3v.74H7.1a5.46,5.46,0,0,0-1.81-2h0c-.19-.14-.38-.28-.58-.41v.79H4.6A5.53,5.53,0,0,0,3,39.53,4.32,4.32,0,0,1,1.6,37.8a2.36,2.36,0,0,1-.16-.91,1.59,1.59,0,0,1,.7-1.4v.31a1.54,1.54,0,0,0-.3.9,2,2,0,0,0,.23.94,10.93,10.93,0,0,0,3.08,2.69c3.16,2.11,3.79,2.48,4.32,3.6a2.81,2.81,0,0,1,.16.49l2.42-.37h.24a2.59,2.59,0,0,0,.71-.69l-1.21-.09-.18.34h-.1a2.326,2.326,0,0,1,.08-.36h-.31v-.07h.33a5.24,5.24,0,0,0,.11-1L10.19,42v.44H10.1A3.88,3.88,0,0,1,10,42H9.67v-.1h.32a5,5,0,0,1,0-1.1H9.1a1.75,1.75,0,0,1,.11.24,2.89,2.89,0,0,1,.08,1.46H9.16a3.16,3.16,0,0,0-.23-1A4.27,4.27,0,0,0,7.2,39.76v.75H7.09c-.31-1-1.08-1.52-2.22-2.1a1.85,1.85,0,0,1-1.18-2l.32.19A1.39,1.39,0,0,0,5.42,38a5.54,5.54,0,0,0,1.14-.13,2.66,2.66,0,0,1,1.4,0v-.5H7.65a1.07,1.07,0,0,1-.68.22,1,1,0,0,1-1.08-.93V36.5c0-.68.58-.78,1.05-.78h.81A.33.33,0,0,0,8,35.63a.3.3,0,0,0,.08-.17,1.74,1.74,0,0,0,0-.32v-.5H5.9v.86l-.83-.31V35h.4v-.34H4v-.71H3.51a.58.58,0,0,0-.6.54c0,.35.13.65.49.65h.06v.42H3.4a1.09,1.09,0,0,1-1.11-1v-.05a1.19,1.19,0,0,1,1.22-1.15H4.58V34H8.72v1.05a5.44,5.44,0,0,1,0,.57.66.66,0,0,1-.26.47,1.05,1.05,0,0,1-.62.14H7.09c-.47,0-.61.15-.62.31a.21.21,0,0,0,0,.11,1,1,0,0,1,.89-.19c.62.2.8.22,1.13,0v.07a.76.76,0,0,1-.19.21h.31v1.63l.94-.57h2.63l1.29.68a.47.47,0,0,1,.26.34.66.66,0,0,1-.08.39,7.865,7.865,0,0,1-.5.82,2.85,2.85,0,0,1,.76,1.92,2.81,2.81,0,0,1-1.08,2.21,1.47,1.47,0,0,1,.77.57Z" transform="translate(-1.43 -33.36)" fill="#fedf01"/></g><g transform="translate(1.425 13.162)"><path d="M7.73,49h-.5V47.59H7.7c.66,0,.91.2.91.69s-.33.74-.88.74m-.05-2.83c.4,0,.67.09.67.51s-.36.57-.77.57H7.23V46.19Zm.8,1.2a.78.78,0,0,0,.69-.75c0-.37-.16-.79-1.26-.79H6a.46.46,0,0,1,.2.13.77.77,0,0,1,.18.54v2.79H8c.85,0,1.46-.32,1.46-1.06s-.46-.85-.94-.89" transform="translate(-2.05 -45.772)" fill="#fff"/><path d="M3.24,46.19h.54c.46,0,.69.13.69.62s-.31.68-.81.68H3.24Zm1.44,3.16h1L4.39,47.71c.52-.14.91-.42.91-.93s-.36-.92-1.3-.92H2.05a.56.56,0,0,1,.2.12.83.83,0,0,1,.18.62v2.72h.81V47.8h.29Z" transform="translate(-2.05 -45.772)" fill="#fff"/><path d="M12.69,46.34a.63.63,0,0,1,.28.28h0l.17-.6a2,2,0,0,0-1.06-.23,1.75,1.75,0,0,0-2,1.82,1.68,1.68,0,0,0,1.57,1.79,1.93,1.93,0,0,0,.34,0,2,2,0,0,0,1.16-.26v-.41a1.47,1.47,0,0,1-.93.27A1.24,1.24,0,0,1,11,47.83a1.62,1.62,0,0,1,0-.22c0-1.07.45-1.42,1.08-1.42a1.19,1.19,0,0,1,.64.15" transform="translate(-2.05 -45.772)" fill="#fff"/></g><path d="M15.68,49.77h.21a.14.14,0,0,0,0-.1.13.13,0,0,0-.07-.13h-.18Zm.17-.42a.27.27,0,0,1,.29.25h0a.26.26,0,0,1-.22.27L16,50l.23.39H16l-.1-.17c-.09-.17-.13-.22-.16-.24h0v.42h-.2v-1Zm-.06-.2a.69.69,0,0,0-.67.73.671.671,0,1,0,1.34-.06.68.68,0,0,0-.67-.67m0,1.57a.88.88,0,1,1,.87-.88h0a.87.87,0,0,1-.87.87" transform="translate(-0.625 -32.61)" fill="#0051a5"/></g></svg>