<?xml version="1.0" standalone="no"?>
<!DOCTYPE svg PUBLIC "-//W3C//DTD SVG 20010904//EN"
 "http://www.w3.org/TR/2001/REC-SVG-20010904/DTD/svg10.dtd">
<svg version="1.0" xmlns="http://www.w3.org/2000/svg"
 width="609.000000pt" height="217.000000pt" viewBox="0 0 609.000000 217.000000"
 preserveAspectRatio="xMidYMid meet">
<metadata>
Created by potrace 1.10, written by Peter Selinger 2001-2011
</metadata>
<g transform="translate(0.000000,217.000000) scale(0.050000,-0.050000)"
fill="#f97f76" stroke="none">
<path d="M828 3822 c-34 -21 -83 -65 -110 -99 -41 -52 -79 -69 -182 -81 -68
-9 -176 -172 -176 -267 0 -51 -14 -78 -58 -110 -169 -125 -188 -414 -37 -579
34 -38 37 -53 17 -108 -75 -216 92 -517 287 -518 75 -1 127 -23 136 -59 33
-126 275 -191 412 -110 47 28 69 32 79 15 63 -101 347 -53 418 71 27 46 57 63
142 82 222 50 351 252 306 479 -20 99 -18 113 17 151 144 153 117 470 -49 579
-32 21 -48 58 -58 129 -16 124 -125 235 -252 255 -44 7 -80 24 -80 37 0 28
-92 117 -154 149 -67 34 -184 26 -255 -17 -62 -39 -63 -39 -122 0 -75 49 -201
50 -281 1z m208 -186 c45 -45 32 -442 -13 -413 -50 31 -137 6 -153 -43 -20
-64 6 -114 80 -149 87 -41 103 -72 114 -217 8 -100 5 -114 -22 -102 -163 69
-258 -101 -102 -182 138 -71 179 -435 55 -479 -86 -30 -145 35 -80 88 131 108
8 216 -161 141 -135 -60 -260 -3 -286 131 -20 110 3 149 91 149 81 0 101 22
101 111 0 54 -51 89 -130 89 -137 0 -224 214 -129 316 46 50 64 53 118 20 113
-70 193 92 89 182 -77 67 -42 181 57 182 19 0 35 -13 35 -29 0 -53 82 -94 128
-64 45 30 78 127 50 144 -28 18 -21 72 15 112 38 42 108 48 143 13z m404 -6
c16 -20 21 -58 12 -111 -14 -87 8 -147 60 -167 41 -16 128 38 128 78 0 48 76
34 111 -19 32 -49 25 -131 -12 -131 -51 0 -84 -99 -51 -150 34 -51 118 -69
142 -30 46 75 150 -37 150 -161 0 -81 -99 -179 -182 -179 -60 0 -138 -60 -137
-105 1 -51 55 -95 117 -95 80 0 117 -67 90 -163 -37 -127 -203 -185 -311 -109
-58 40 -105 41 -146 1 -45 -46 -38 -119 14 -154 54 -36 20 -95 -55 -95 -76 0
-97 49 -95 220 3 181 10 200 103 264 165 112 100 264 -80 187 -28 -11 -32 2
-28 98 6 129 43 195 128 230 75 31 95 88 53 152 -33 50 -117 67 -141 29 -31
-50 -40 -5 -36 185 5 238 76 334 166 225z"/>
<path d="M5806 3792 c-257 -65 -403 -275 -405 -582 -1 -222 39 -292 300 -521
242 -211 299 -301 299 -469 0 -292 -193 -493 -430 -449 -164 31 -232 143 -246
404 -10 202 -17 210 -124 155 -107 -55 -133 -205 -62 -361 159 -351 827 -324
1007 41 157 318 80 583 -255 876 -251 221 -273 261 -266 476 18 512 554 571
562 61 l1 -127 62 12 c215 42 190 342 -38 449 -116 55 -274 69 -405 35z"/>
<path d="M6920 3788 c-343 -92 -518 -491 -360 -818 52 -108 61 -118 231 -260
283 -236 323 -305 317 -535 -9 -309 -258 -495 -501 -372 -117 59 -163 163
-170 387 -6 173 -9 178 -95 148 -173 -61 -154 -390 28 -515 333 -228 828 -68
940 304 92 306 -4 510 -393 837 -306 257 -236 763 109 792 186 15 250 -58 269
-308 12 -166 27 -177 139 -109 180 110 56 382 -203 450 -143 37 -169 37 -311
-1z"/>
<path d="M2700 3760 c0 -11 40 -20 88 -20 170 0 178 -20 113 -277 -42 -165
-74 -314 -152 -701 -28 -136 -54 -254 -58 -260 -4 -7 -14 -53 -21 -102 -7 -50
-26 -148 -42 -220 -79 -358 -93 -380 -249 -380 -53 0 -102 -9 -109 -20 -8 -13
90 -20 279 -20 181 0 291 8 291 20 0 11 -45 20 -101 20 -143 0 -143 4 -28 540
108 506 215 1029 233 1145 32 207 48 165 74 -200 27 -382 53 -677 103 -1197
12 -122 20 -230 18 -240 -13 -66 4 -88 66 -87 72 2 83 21 631 1159 403 838
393 822 313 493 -16 -64 -34 -145 -39 -180 -6 -34 -48 -229 -93 -433 -44 -203
-85 -392 -90 -419 -92 -497 -130 -579 -271 -580 -40 -1 -79 -10 -86 -21 -8
-13 113 -20 349 -20 332 0 505 29 266 44 -128 8 -129 28 -14 546 52 231 101
461 109 510 9 50 35 171 59 270 23 99 47 212 53 250 41 270 96 359 225 362
148 4 254 -6 277 -26 30 -24 21 -83 -85 -556 -16 -71 -79 -368 -140 -660 -60
-291 -115 -550 -120 -576 -17 -77 -81 -124 -169 -124 -44 0 -80 -9 -80 -20 0
-13 130 -20 350 -20 220 0 350 7 350 20 0 11 -40 20 -89 20 -119 0 -133 30
-97 198 49 232 144 665 196 903 28 127 56 258 62 290 5 32 18 91 28 129 10 39
24 102 30 140 37 223 81 280 214 280 42 0 76 9 76 20 0 13 -215 20 -606 20
l-606 0 -157 -315 c-229 -458 -600 -1225 -630 -1300 -14 -36 -32 -65 -40 -65
-12 0 -47 364 -71 740 -5 72 -22 273 -39 448 -17 175 -31 357 -31 405 l0 87
-270 0 c-167 0 -270 -8 -270 -20z"/>
<path d="M8231 3649 c-39 -73 -127 -246 -194 -385 -67 -140 -194 -402 -282
-584 -88 -181 -205 -424 -259 -540 -133 -282 -179 -340 -267 -340 -38 0 -69
-9 -69 -20 0 -12 103 -20 270 -20 274 0 382 33 145 44 l-125 6 3 70 c1 41 55
179 130 333 l127 264 307 6 c169 4 310 2 314 -5 6 -9 28 -363 33 -538 4 -98
-43 -140 -155 -140 -49 0 -89 -9 -89 -20 0 -13 124 -20 331 -20 216 0 327 7
319 20 -7 11 -29 20 -49 20 -56 0 -83 48 -92 164 -31 391 -90 1177 -101 1336
-7 105 -14 217 -17 250 -2 33 -5 98 -7 145 l-4 85 -98 0 -98 0 -73 -131z m57
-349 c7 -181 17 -370 22 -420 4 -49 13 -148 19 -220 l10 -130 -299 0 c-165 0
-300 1 -300 3 0 2 73 155 162 340 210 436 318 665 341 725 28 74 31 54 45
-298z"/>
</g>
</svg>
